ply
format ascii 1.0
comment Generated by the ZED SDK.
element vertex 366
property float32 x
property float32 y
property float32 z
property float32 nx
property float32 ny
property float32 nz
property uchar red
property uchar green
property uchar blue
element face 462
property list uchar int vertex_indices
end_header
-0.05 0.2 0.523437 -0.0574321 -0.992207 -0.110573 53 44 39
-0.05 0.19704 0.55 -0.0581794 -0.996068 -0.0668163 50 43 40
-0.1 0.2 0.549407 -0.0581794 -0.996068 -0.0668163 155 124 63
-0.1 0.199986 0.55 -0.0588145 -0.998006 -0.0229306 155 124 63
-0.15 0.2 0.69522 0.42291 -0.868903 -0.257204 89 65 40
-0.14722 0.2 0.7 0.50839 -0.808777 -0.295667 85 62 40
-0.15 0.196499 0.7 0.712693 -0.565926 -0.414484 84 64 45
-0.1 0.212102 0.7 0.00378314 -0.998437 -0.0557577 163 131 73
-0.15 0.208352 0.65 0.0884048 -0.99599 -0.0137121 166 128 60
-0.1 0.204531 0.65 -0.0426189 -0.987832 0.149573 166 131 69
-0.05 0.204033 0.65 -0.316672 -0.931996 -0.176359 163 129 70
-0.05 0.2 0.661891 -0.412321 -0.86277 -0.292608 161 128 71
-0.0724597 0.2 0.7 -0.434854 -0.860701 -0.264756 158 125 73
-0.0395706 0.2 0.65 -0.343862 -0.889269 -0.301595 139 111 64
-0.15 0.204897 0.8 0.465948 -0.879431 0.0974403 84 65 49
-0.155059 0.2 0.8 0.699806 -0.709015 0.0870001 76 61 51
-0.15 0.2 0.786118 0.674137 -0.696546 0.245689 74 58 45
0.107445 0.2 0.8 -0.40998 -0.904165 -0.120005 145 103 58
0.15 0.180704 0.8 -0.427195 -0.893851 -0.136147 116 84 54
0.1 0.2 0.825433 -0.312937 -0.938073 -0.148625 83 61 42
0.1 0.197109 0.85 -0.220081 -0.967248 -0.126475 25 21 27
0.15 0.17025 0.85 -0.465399 -0.866368 -0.181137 106 75 54
0.05 0.20041 0.85 0.334587 -0.929578 -0.154711 157 129 88
0.049378 0.2 0.85 0.427022 -0.897145 -0.113059 157 130 89
0.0405339 0.2 0.8 0.594097 -0.797388 -0.105932 134 113 80
0.05 0.207934 0.8 0.317477 -0.937709 -0.141104 151 124 81
0.1 0.205609 0.8 -0.0895634 -0.977477 -0.191093 145 104 59
0.0536555 0.2 0.85 -0.0949531 -0.979641 -0.17688 148 122 84
0.25 0.200267 0.8 -0.283538 -0.957617 0.0507591 123 84 48
0.251238 0.2 0.8 -0.210639 -0.97689 0.0362917 121 83 47
0.259852 0.2 0.85 -0.276594 -0.960971 -0.00554742 110 78 50
0.25 0.203747 0.85 0.0158869 -0.999438 -0.029506 123 83 49
0.05 0.2 0.852141 0.19472 -0.973531 -0.119671 158 130 89
0.05 0.195118 0.9 0.088393 -0.991586 -0.0945719 162 142 109
0 0.186122 0.85 0.235468 -0.969969 -0.0609465 160 177 179
0 0.184854 0.9 0.188271 -0.979901 -0.065937 137 153 163
0.1 0.190742 0.9 -0.0866855 -0.990452 -0.10719 39 40 44
0.25 0.2 0.892767 0.138778 -0.988257 -0.0639371 110 75 45
0.25 0.199591 0.9 0.331468 -0.938526 -0.0964229 107 74 45
0.2467 0.2 0.85 0.594075 -0.803048 -0.046783 123 84 50
0.2 0.178579 0.85 0.515949 -0.841067 -0.162489 92 78 68
0.2 0.159523 0.9 0.31226 -0.904643 0.290024 80 58 46
0.3 0.192611 0.85 -0.192014 -0.979875 -0.0545464 50 48 47
0.3 0.189204 0.9 -0.202955 -0.976923 -0.0665699 33 33 37
0.2 0.0930775 0.95 -0.182892 -0.617376 -0.765113 193 168 136
0.192683 0.1 0.95 -0.295794 -0.0974259 -0.950271 195 170 137
0.2 0.1 0.947801 -0.112627 -0.128728 -0.985264 189 164 132
0.233986 0.1 0.95 0.174214 0.0678947 -0.982364 140 116 90
0.2 0.145738 0.95 0.226063 0.153065 -0.962012 102 74 57
0.05 0.189719 0.95 0.0991313 -0.990625 -0.0939989 175 162 139
0 0.181417 0.95 0.163429 -0.984232 -0.0676623 131 150 164
0.1 0.186283 0.95 -0.0775116 -0.992183 -0.0978028 52 53 58
0.2 0.2 0.947079 -0.079187 -0.75483 0.651123 55 47 49
0.224016 0.2 0.95 -0.0836143 -0.996339 0.0178255 61 52 49
0.25 0.196604 0.95 0.174253 -0.984349 0.0263076 69 59 50
0.2 0.202528 0.95 -0.0793354 -0.75376 0.652343 57 48 49
0.25 0 0.974428 0.0425055 -0.349872 -0.935833 182 152 128
0.210881 0 1 -0.910988 -0.165993 -0.377555 205 179 148
0.25 0.05 0.953728 -0.2876 -0.287206 -0.913674 159 136 112
0.209267 0.05 1 -0.830277 -0.507359 -0.230708 169 154 131
0.3 0.05 0.974402 0.593101 0.03507 -0.804364 164 143 111
0.3 0 0.989486 0.478514 -0.213225 -0.851798 207 183 153
0.317665 0 1 0.866077 -0.218317 -0.449721 200 173 143
0.330269 0.05 1 0.931257 0.000676452 -0.364363 120 102 85
0.15 0.0861898 1 -0.737308 -0.620928 -0.266132 189 178 159
0.145783 0.1 1 -0.951814 -0.290617 -0.0979367 225 200 160
0.15 0.1 0.964769 -0.443536 -0.420401 -0.791542 230 201 158
0.2 0.0584726 1 -0.494606 -0.760541 -0.420644 170 155 132
0.25 0.1 0.951267 0.463624 0.42074 -0.779763 117 94 71
0.3 0.0681214 1 0.784401 0.589943 -0.191526 133 116 95
0.276825 0.1 1 0.760023 0.538931 -0.363206 103 86 77
0.2 0.15 0.950181 0.147485 -0.0537266 -0.987604 94 66 50
0.15 0.15 0.951017 0.401133 -0.277902 -0.872848 184 151 114
0.239555 0.15 1 0.751443 0.0964487 -0.652711 77 61 56
0.25 0.136422 1 0.650854 0.557662 -0.515172 86 71 65
0.15 0.151113 0.95 0.668492 -0.501736 -0.54898 182 149 112
0.186692 0.2 0.95 0.687279 -0.51478 -0.512494 66 53 49
0.2 0.2 0.969744 0.0378074 0.0589232 -0.997546 58 62 79
0.25 0.163867 1 0.517477 -0.585485 -0.624039 62 55 60
0.247674 0 1.05 -0.82812 -0.550981 0.103132 158 144 132
0.2 0.0467853 1.05 -0.694749 -0.707948 -0.12702 70 84 115
0.2 0.05 1.03208 -0.670175 -0.72079 -0.176995 104 108 120
0.313147 0 1.05 0.868719 -0.365962 0.333765 146 130 116
0.326588 0.05 1.05 0.924386 0.362768 0.117941 112 100 91
0.15 0.0697448 1.05 -0.789225 -0.597643 -0.141233 138 145 159
0.141476 0.1 1.05 -0.975559 -0.219733 0.00101324 220 196 163
0.194621 0.05 1.05 -0.482415 -0.844953 -0.230936 72 87 120
0.29558 0.1 1.05 0.891656 0.428777 -0.14526 80 74 72
0.3 0.0843791 1.05 0.924994 0.379883 0.00864398 91 82 77
0.25 0.15 1.01093 0.802826 0.111091 -0.585773 70 57 58
0.265886 0.15 1.05 0.886577 0.361731 -0.288326 83 71 78
0.25 0.0152632 1.1 0.2384 -0.965379 0.105871 59 64 85
0.25 0 1.06867 0.0250142 -0.898683 0.437886 125 118 119
0.3 0 1.06582 0.34949 -0.716376 0.603872 127 116 112
0.3 0.0385003 1.1 0.676335 -0.732202 -0.0803259 84 75 80
0.309065 0.05 1.1 0.977733 -0.0869834 -0.190974 82 73 77
0.15 0.0599288 1.1 -0.837368 -0.250411 0.485911 110 136 169
0.145953 0.1 1.1 -0.952721 -0.153277 0.262354 225 202 169
0.156332 0.05 1.1 -0.959263 -0.0285209 0.281072 79 115 164
0.296318 0.1 1.1 0.960007 0.257149 -0.110726 75 70 78
0.3 0.0759801 1.1 0.913325 0.336845 -0.228851 77 70 76
0.139494 0.15 1.05 -0.991521 -0.129937 -0.0018544 220 203 178
0.134718 0.15 1.1 -0.879188 -0.240927 0.411075 227 216 198
0.282438 0.15 1.1 0.908867 0.393483 -0.138321 70 65 74
0.240945 0.2 1.1 0.756101 0.654284 0.0149738 62 81 118
0.25 0.189536 1.1 0.69862 0.704583 -0.124471 69 85 121
0.25 0.2 1.08012 0.721662 0.608127 0.330734 57 77 118
0.264701 0.2 1.05 0.935829 0.351892 0.0199284 48 58 83
0.35 0.207915 1.1 -0.0097573 -0.99239 -0.122747 28 26 33
0.3 0.213846 1.05 -0.00767843 -0.993877 -0.110226 60 50 47
0.35 0.213777 1.05 -0.00136809 -0.993195 -0.116456 31 27 28
0.3 0.208618 1.1 -0.0302963 -0.99266 -0.117087 50 45 46
0.25 0 1.10431 0.283531 -0.462322 -0.84016 63 72 99
0.3 0 1.13604 0.505188 -0.576733 -0.642 56 56 67
0.322731 0 1.15 0.638224 -0.300425 -0.708812 74 67 70
0.332427 0.05 1.15 0.710609 0.00425194 -0.703574 42 41 52
0.372365 0 1.15 -0.468161 0.528531 -0.708153 91 75 67
0.4 0.0230848 1.15 -0.461148 0.552047 -0.694684 57 49 54
0.4 0 1.12315 -0.535113 0.640592 -0.550724 74 58 54
0.15 0.1 1.10405 -0.670292 -0.108233 0.734163 225 202 169
0.146115 0.05 1.15 -0.680882 0.680881 0.269816 95 135 183
0.15 0.0538852 1.15 -0.649883 0.740676 0.170443 94 134 182
0.15 0.05 1.11029 -0.452848 0.887351 -0.0868118 82 121 172
0.183333 0.1 1.15 -0.922339 0.236061 0.305886 205 196 179
0.3 0.1 1.1292 0.861703 0.379709 -0.336584 52 50 62
0.321157 0.1 1.15 0.579834 0.292194 -0.760536 40 41 57
0.15 0.15 1.11528 -0.631692 -0.424992 0.648342 219 208 190
0.187149 0.15 1.15 -0.899653 -0.241873 0.363485 166 157 159
0.293702 0.15 1.15 0.920362 0.216845 -0.325441 47 52 72
0.3 0.120619 1.15 0.597265 0.310499 -0.739503 40 42 58
0.15 0.184444 1.15 -0.630564 -0.654758 0.41675 177 169 152
0.134444 0.2 1.15 -0.782621 -0.49987 0.37099 139 124 105
0.136268 0.2 1.1 -0.998856 0.0309661 -0.0364438 150 131 110
0.25 0.2 1.122 0.557935 0.749406 -0.356511 62 85 119
0.280376 0.2 1.15 0.756214 0.437443 -0.486605 56 68 90
0.35 0.200445 1.15 -0.0551489 -0.988981 -0.13739 34 34 43
0.3 0.203615 1.15 -0.0628252 -0.991176 -0.116716 53 58 78
0.35 0.05 1.16211 0.260925 -0.059501 -0.963524 38 38 51
0.35 0 1.16467 0.174261 0.0847545 -0.981045 92 81 81
0.4 0.05 1.16469 -0.202088 0.217799 -0.954842 39 40 54
0.15 0.05 1.15389 -0.657478 0.529312 0.536238 94 133 182
0.184835 0.05 1.2 -0.98238 0.115083 0.147261 108 134 171
0.180126 0.1 1.2 -0.996853 -0.0371551 -0.0700218 199 188 168
0.35 0.1 1.15413 0.118705 0.00534587 -0.992915 40 43 61
0.4 0.1 1.16133 0.111913 -0.0711963 -0.991164 38 42 59
0.179262 0.15 1.2 -0.949998 0.198776 -0.240816 200 193 184
0.3 0.15 1.1586 0.318196 0.192586 -0.928257 40 47 69
0.35 0.15 1.15208 0.0314297 -0.0152884 -0.999389 40 42 57
0.4 0.15 1.16183 0.102155 -0.0809891 -0.991466 35 37 53
0.15 0.2 1.19593 -0.570323 -0.537434 0.621205 134 120 104
0.2 0.182032 1.2 -0.303474 0.947447 -0.101232 113 125 147
0.2 0.2 1.16957 -0.0207281 0.860935 0.508293 82 91 112
0.249428 0.2 1.2 -0.931338 -0.0710756 0.357152 69 97 144
0.3 0.2 1.17667 0.10171 -0.637847 -0.763418 48 58 85
0.35 0.2 1.1526 -0.13487 -0.252185 -0.958234 34 35 44
0.368463 0.2 1.15 -0.131659 -0.333333 -0.933571 28 29 36
0.4 0.187544 1.15 -0.127651 -0.315863 -0.940179 23 22 31
-0.65 0.1 1.60653 -0.362641 -0.139883 -0.921371 240 255 252
-0.630167 0.1 1.6 -0.31066 -0.113381 -0.943735 237 254 251
-0.617091 0.05 1.6 -0.388979 -0.137071 -0.910992 236 254 252
-0.65 0.05 1.61757 -0.462297 -0.191221 -0.865861 241 254 252
-0.525904 0.1 1.6 0.161286 -0.00740447 -0.98688 225 251 252
-0.5 0.1 1.6038 0.185927 0.00521496 -0.98255 224 250 252
-0.5 0.05 1.60542 0.1733 -0.0162288 -0.984735 226 249 251
-0.527711 0.05 1.6 0.193462 -0.00699347 -0.981083 226 250 250
-0.45 0.1 1.6138 0.178007 0.00271838 -0.984025 223 248 252
-0.45 0.05 1.61352 0.178814 0.0130421 -0.983796 221 245 252
-0.4 0.1 1.62395 0.177283 -0.0115798 -0.984092 225 247 251
-0.4 0.05 1.62254 0.173051 0.0223434 -0.984659 223 245 251
-0.65 0.142273 1.6 -0.309366 -0.145143 -0.939801 239 255 252
-0.523102 0.15 1.6 0.200653 0.00774385 -0.979632 225 251 251
-0.5 0.15 1.60542 0.193058 0.000657901 -0.981187 225 252 252
-0.45 0.15 1.61583 0.172787 -0.00208389 -0.984957 225 251 252
-0.4 0.15 1.62174 0.160146 0.00539355 -0.987079 227 251 252
-0.532397 0.2 1.6 0.170622 0.0141038 -0.985236 227 253 252
-0.5 0.2 1.60458 0.15717 -0.011709 -0.987502 227 253 252
-0.45 0.2 1.61233 0.181588 -0.0183574 -0.983203 225 251 252
-0.4 0.2 1.62239 0.186798 -0.00368031 -0.982391 222 246 247
-0.522239 0.25 1.6 0.162344 -0.0356364 -0.98609 228 255 253
-0.5 0.25 1.60388 0.177176 -0.0304717 -0.983707 227 254 253
-0.45 0.25 1.61329 0.17425 0.00806085 -0.984668 221 249 249
-0.4 0.25 1.62269 0.195709 0.010155 -0.980609 227 252 251
-0.508285 0.3 1.6 0.178033 -0.0506913 -0.982718 225 253 252
-0.5 0.3 1.60152 0.179972 -0.0464919 -0.982572 225 253 252
0 0.15 1.69757 0.212658 -0.00572951 -0.97711 210 240 252
0.00979124 0.15 1.7 0.240404 -0.0102211 -0.970619 210 239 252
0 0.104652 1.7 0.189229 -0.0532277 -0.980489 207 236 251
0 0.194514 1.7 0.23968 0.0526643 -0.969422 209 239 251
0 0.25 1.69921 0.23398 0.0107725 -0.972182 206 238 250
0.00306899 0.25 1.7 0.247669 0.00194646 -0.968843 206 238 250
0 0.213748 1.7 0.245719 -0.0211266 -0.969111 208 239 251
0 0.270889 1.7 0.24914 0.0360762 -0.967795 206 239 251
0.15 0.255576 1.7 -0.695947 -0.702718 -0.147801 185 207 224
0.105372 0.3 1.7 -0.699735 -0.697657 -0.15377 184 213 232
0.15 0.265884 1.65 -0.701388 -0.696671 -0.150681 146 166 178
0.116496 0.3 1.65 -0.704655 -0.692013 -0.156776 152 171 185
0 0.05 1.70158 0.207742 -0.0434388 -0.977219 206 232 249
0.05 0.1 1.70825 0.198799 -0.0239522 -0.979748 205 234 249
0.05 0.05 1.71343 0.180853 -0.0583351 -0.981779 204 232 249
0 0.1 1.70025 0.184019 -0.0298718 -0.982469 206 235 250
0.1 0.1 1.71946 0.187565 -0.0110537 -0.98219 206 234 250
0.1 0.05 1.71813 0.186019 0.0207332 -0.982327 203 230 247
0.15 0.1 1.73095 0.222967 -0.0131926 -0.974737 198 225 242
0.15 0.05 1.73046 0.218976 0.00313071 -0.975725 200 227 246
0.2 0.1 1.74112 0.205582 -0.00170729 -0.978638 200 223 236
0.2 0.05 1.74164 0.218217 -0.0100695 -0.975848 198 220 233
0.05 0.15 1.70985 0.202502 -0.000195135 -0.979282 209 238 252
0.1 0.15 1.72053 0.196562 -0.00368805 -0.980484 203 234 251
0.15 0.15 1.72787 0.208201 0.000495217 -0.978086 202 224 240
0.2 0.15 1.74087 0.234268 -0.0154753 -0.972049 200 223 239
0 0.2 1.7003 0.220575 0.0118619 -0.975298 208 238 251
0.05 0.2 1.70862 0.155854 0.0202179 -0.987573 206 238 251
0.1 0.2 1.71699 0.207802 -0.0256128 -0.977835 206 232 249
0.15 0.2 1.73 0.219861 -0.0039743 -0.975523 202 226 243
0.2 0.2 1.74181 0.240727 0.0297028 -0.970138 197 221 238
0.05 0.25 1.71191 0.197348 0.0484449 -0.979136 205 238 250
0.1 0.25 1.71799 0.162653 0.0633524 -0.984647 206 235 252
0.15 0.25 1.7284 -0.011277 -0.196609 -0.980417 201 227 245
0 0.3 1.70107 0.251079 0.0400966 -0.967136 206 239 251
0.05 0.3 1.71445 0.217188 0.0496184 -0.974868 204 237 251
0.1 0.3 1.72339 -0.250885 -0.32228 -0.912794 201 232 251
0.223085 0.2 0.55 -0.114052 -0.990307 0.0792779 80 58 35
0.25 0.1969 0.55 -0.114052 -0.990307 0.0792779 102 68 33
0.25 0.2 0.588721 -0.114052 -0.990307 0.0792779 46 31 23
0.2 0.199974 0.6 0.0162977 -0.99631 -0.0842706 71 54 38
0.2 0.2 0.599453 0.0163378 -0.998757 -0.0471009 70 53 37
0.201576 0.2 0.6 0.0736183 -0.992803 -0.0944607 69 52 37
0 0.198355 0.6 0.38842 -0.890456 -0.237105 126 91 51
0.00377168 0.2 0.6 0.380278 -0.893553 -0.238645 130 95 52
0 0.185041 0.65 0.351251 -0.914789 -0.19946 80 80 78
0.0360432 0.2 0.65 0.372127 -0.898743 -0.231911 119 94 60
0.2 0.193862 0.65 0.131374 -0.991304 -0.00755169 116 80 48
0.231951 0.2 0.65 0.188417 -0.980806 0.0501862 120 81 46
0.3 0.187025 0.65 -0.438494 -0.898734 -0.000395966 23 17 18
0.273406 0.2 0.65 -0.438494 -0.898734 -0.000395966 76 51 33
0.3 0.2 0.622286 -0.404173 -0.828389 -0.387836 59 43 29
0.05 0.2 0.672072 0.139819 -0.958694 -0.247704 101 76 53
0.05 0.193694 0.7 0.323817 -0.929644 -0.175795 56 42 43
0 0.179833 0.7 0.265813 -0.958837 -0.0998729 51 53 57
0.2 0.2 0.677666 0.184331 -0.959533 0.212883 127 89 50
0.3 0.2 0.677776 -0.37223 -0.884822 0.280241 60 43 27
0.05 0.20659 0.65 0.153659 -0.946821 -0.2827 149 116 67
0.1 0.200492 0.65 -0.188919 -0.954374 -0.231256 131 92 51
0.1 0.2 0.652298 -0.225138 -0.952772 -0.203811 127 89 50
0.101233 0.2 0.65 -0.363135 -0.911124 -0.194902 129 91 50
0.3 0.204051 0.7 -0.334345 -0.927174 0.169003 82 58 33
0.311234 0.2 0.7 -0.334345 -0.927174 0.169003 82 59 33
0.2 0.20149 0.75 0.255717 -0.960102 -0.113199 135 95 54
0.196277 0.2 0.75 0.368848 -0.921764 -0.119591 138 97 54
0.180065 0.2 0.7 0.351371 -0.929466 -0.112394 104 72 42
0.2 0.207102 0.7 0.140971 -0.984858 -0.100907 135 95 51
0.25 0.204346 0.75 0.0424803 -0.994349 -0.0972944 117 79 44
0.25 0.208521 0.7 0.028271 -0.996133 -0.0831835 108 75 43
-0.15 0.205521 0.85 0.386279 -0.917621 -0.0935941 94 80 64
-0.155382 0.2 0.85 0.712731 -0.694738 -0.0967129 88 79 70
-0.1 0.200262 0.8 -0.274864 -0.946508 -0.169035 128 92 52
-0.1 0.2 0.800848 -0.384091 -0.882068 -0.272818 126 91 51
-0.134912 0.2 0.85 -0.359153 -0.897628 -0.255487 71 63 57
-0.2 0.181427 0.9 0.103233 -0.993495 -0.0480654 160 181 182
-0.25 0.182367 0.85 0.0116773 -0.999468 -0.0304637 187 212 210
-0.2 0.18235 0.85 -0.000339987 -0.99983 -0.0184531 154 176 176
-0.25 0.180241 0.9 0.0118222 -0.999555 -0.0273891 194 220 220
-0.15 0.2 0.869175 0.702048 -0.684325 -0.197051 107 92 74
-0.2 0.179543 0.95 0.10418 -0.99437 -0.019379 169 188 188
-0.25 0.18014 0.95 -0.0119314 -0.999927 -0.00203118 206 235 240
-0.15 0.189828 0.95 0.17765 -0.945006 0.274598 96 108 118
-0.15 0.195216 0.9 0.0173208 -0.995317 -0.0951021 150 137 109
-0.1 0.185348 0.95 -0.100513 -0.976234 0.192 126 143 156
-0.1 0.188924 0.9 -0.124553 -0.989686 -0.0707702 99 113 124
-0.179515 0.2 1 0.696765 -0.676103 0.239591 169 193 194
-0.2 0.179515 1 0.586244 -0.765308 0.265746 172 194 194
-0.15 0.2 0.960172 0.389317 -0.690015 0.610174 96 109 118
-0.1 0.2 0.964652 -0.059474 -0.734319 0.676194 127 145 156
-0.15 0.233609 1 0.194404 -0.748691 0.633773 160 149 121
-0.1 0.230088 1 -0.0535419 -0.760397 0.647248 170 161 132
-0.2 0.178692 1.05 0.707059 -0.707059 -0.0116262 168 189 189
-0.178692 0.2 1.05 0.707059 -0.707059 -0.0116262 167 189 190
0.181994 0.05 1.25 -0.995421 -0.0823825 -0.0484848 120 150 184
0.178141 0.1 1.25 -0.997301 -0.0564236 -0.0469831 205 195 179
0.175578 0.15 1.25 -0.995989 -0.0511881 -0.0733845 211 208 194
0.2 0.2 1.21432 0.0232635 0.121621 -0.992304 94 109 132
0.173001 0.2 1.25 -0.919458 0.214436 -0.329567 104 89 76
0.249618 0.2 1.25 0.622422 0.0684833 -0.77968 72 108 157
0.25 0.197627 1.25 -0.453974 0.81813 -0.352945 72 107 157
0.25 0.2 1.21881 -0.962424 0.262738 0.068615 70 101 149
0.251785 0.2 1.25 -0.917253 -0.355049 -0.180519 71 106 155
0.25 0.200422 1.25 -0.0361993 -0.958006 -0.284455 71 107 157
0.2 0.215999 1.2 0.0986989 -0.917783 -0.38462 56 75 108
0.179513 0.05 1.3 -0.996961 -0.0657083 -0.0418536 132 164 198
0.176496 0.1 1.3 -0.997977 -0.0539696 -0.0335985 212 205 188
0.25 0.2 1.25385 -0.849457 -0.350913 -0.394059 72 108 158
0.177341 0.05 1.35 -0.998128 -0.050854 -0.0339878 139 171 203
0.175262 0.1 1.35 -0.998833 -0.0415249 -0.0246467 214 209 196
0.2 0.25 1.5034 0.0255668 -0.980353 -0.195589 47 47 54
0.2 0.240702 1.55 0.0230532 -0.980843 -0.193429 83 88 98
0.17402 0.25 1.5 0.0251502 -0.980405 -0.195383 46 46 53
0.15 0.249394 1.5 0.0217963 -0.981085 -0.192348 47 49 55
0.15 0.239742 1.55 0.0188587 -0.981696 -0.189516 78 85 95
-0.35 0.1 1.63221 0.143846 0.00600272 -0.989582 221 245 250
-0.35 0.05 1.63163 0.140877 -0.0158904 -0.9899 221 244 250
-0.3 0.1 1.63628 0.161843 0.00558521 -0.986801 218 241 250
-0.3 0.05 1.63986 0.184986 -0.0453469 -0.981694 215 237 248
-0.25 0.1 1.64821 0.192752 -0.00316802 -0.981242 216 239 248
-0.25 0.05 1.648 0.166869 0.00782529 -0.985948 216 238 249
-0.23576 0.05 1.65 0.139417 0.0153007 -0.990116 213 235 246
-0.241248 0.1 1.65 0.180478 0.0194368 -0.983387 215 238 247
-0.35 0.15 1.62998 0.169439 -0.00501065 -0.985528 224 249 253
-0.3 0.15 1.63994 0.163128 0.00808159 -0.986572 223 247 251
-0.25 0.15 1.6491 0.183187 0.00208706 -0.983076 222 248 252
-0.243091 0.15 1.65 0.153829 -0.00806159 -0.988065 221 247 252
-0.35 0.2 1.63268 0.166601 0.0280556 -0.985625 226 251 251
-0.3 0.2 1.63965 0.152506 0.0204466 -0.988091 222 249 249
-0.25 0.2 1.64701 0.194001 0.0276442 -0.980612 220 247 251
-0.238214 0.2 1.65 0.209817 0.0308346 -0.977255 218 245 250
-0.35 0.25 1.63316 0.188234 0.00814971 -0.98209 230 254 252
-0.3 0.25 1.64116 0.160053 0.0384191 -0.98636 224 251 250
-0.25 0.234989 1.65 0.227825 0.0838836 -0.970082 221 248 252
-0.256464 0.25 1.65 0.196315 0.0841209 -0.976926 221 249 251
-0.25 0.3 1.64779 0.215054 -0.0701988 -0.974076 221 250 251
-0.239987 0.3 1.65 0.204403 -0.0669375 -0.976595 221 250 252
-0.25 0.269324 1.65 0.208291 -0.0679913 -0.975701 221 249 252
-0.2 0.1 1.65848 0.192402 0.0135162 -0.981223 213 235 246
-0.2 0.05 1.65505 0.194398 0.0313336 -0.980422 207 228 240
-0.15 0.1 1.66733 0.175216 0.0434602 -0.98357 211 233 245
-0.15 0.05 1.66861 0.193705 -0.0554829 -0.97949 208 229 241
-0.1 0.1 1.6731 0.219493 -0.00621722 -0.975594 209 233 246
-0.1 0.05 1.67906 0.237568 -0.0359745 -0.970704 208 232 243
-0.05 0.1 1.69245 0.216881 -0.0197925 -0.975997 210 236 250
-0.05 0.05 1.68635 0.196916 0.0731119 -0.977691 205 225 240
-0.00522622 0.05 1.7 0.290406 -0.0207948 -0.956678 206 232 248
-0.00164592 0.1 1.7 0.19958 -0.00947943 -0.979836 207 236 250
-0.2 0.15 1.65568 0.211104 0.0100776 -0.977412 216 241 251
-0.15 0.15 1.66978 0.210311 -0.000178782 -0.977635 217 242 253
-0.1 0.15 1.68055 0.176077 0.0298211 -0.983925 215 241 254
-0.05 0.15 1.68829 0.20709 -0.00763148 -0.978292 212 237 251
-0.2 0.2 1.65998 0.213217 0.0326411 -0.976459 212 239 247
-0.15 0.2 1.67058 0.187216 0.00129244 -0.982318 215 241 251
-0.1 0.2 1.67671 0.186159 -0.0128042 -0.982436 212 240 251
-0.05 0.2 1.68766 0.21157 -0.00279317 -0.977359 213 240 252
-0.00119951 0.2 1.7 0.242897 0.0232021 -0.969775 209 239 251
-0.25 0.25 1.6513 0.190686 -0.0001309 -0.981651 220 248 251
-0.2 0.25 1.65877 0.179048 -0.00105233 -0.98384 214 242 249
-0.15 0.25 1.66753 0.183699 0.0071607 -0.982956 215 242 253
-0.1 0.25 1.67731 0.190609 0.00438537 -0.981656 211 238 252
-0.05 0.25 1.68937 0.213814 0.00566548 -0.976858 212 241 253
-0.2 0.3 1.65804 0.199616 -0.0312491 -0.979376 219 247 252
-0.15 0.3 1.67115 0.197301 0.0427452 -0.979411 216 245 251
-0.1 0.3 1.67954 0.175025 0.0529417 -0.98314 214 245 252
-0.05 0.3 1.68808 0.211994 0.00742961 -0.977243 212 242 251
-0.00415248 0.3 1.7 0.252265 0.0360795 -0.966985 206 239 251
-0.6 0.05 1.59091 0.1153 -0.0048894 -0.993319 234 254 252
-0.55 0.1 1.59647 0.147813 -0.0180892 -0.98885 226 251 251
-0.55 0.05 1.59557 0.144433 0.00956458 -0.989468 226 250 250
-0.6 0.1 1.58951 0.133382 -0.0413081 -0.990203 233 254 251
-0.55 0.15 1.59371 0.164617 0.00676436 -0.986334 226 251 251
-0.6 0.15 1.58741 0.0536623 0.0132355 -0.998471 233 254 251
-0.65 0.15 1.59896 -0.170011 -0.0474901 -0.984297 239 254 251
-0.6 0.2 1.58791 0.0144774 -0.0298128 -0.999451 235 255 253
-0.65 0.2 1.59368 -0.0817267 -0.0827892 -0.99321 238 254 251
-0.55 0.2 1.59745 0.160034 0.00611558 -0.987093 228 252 251
-0.6 0.25 1.58677 0.0623379 -0.0673854 -0.995778 235 255 252
-0.65 0.25 1.5876 -0.00513018 -0.110375 -0.993877 238 254 252
-0.55 0.25 1.59511 0.174931 -0.0472166 -0.983448 230 254 252
-0.6 0.3 1.58233 0.0639672 -0.0994792 -0.992981 233 255 252
-0.65 0.3 1.58145 0.0174967 -0.121982 -0.992378 239 255 252
-0.55 0.3 1.59205 0.180381 -0.0689661 -0.981176 228 254 253
3 0 1 2
3 1 3 2
3 4 5 6
3 4 7 5
3 4 8 7
3 7 8 9
3 10 11 12
3 7 10 12
3 7 9 10
3 10 13 11
3 14 15 16
3 17 18 19
3 18 20 19
3 18 21 20
3 22 23 24
3 22 24 25
3 19 27 26
3 22 26 27
3 22 25 26
3 28 29 30
3 28 30 31
3 23 32 33
3 23 33 34
3 33 35 34
3 20 32 27
3 20 33 32
3 20 36 33
3 37 38 39
3 38 40 39
3 38 41 40
3 30 42 37
3 37 42 38
3 38 42 43
3 22 32 23
3 31 37 39
3 30 37 31
3 44 45 46
3 44 46 47
3 45 48 46
3 46 48 47
3 33 49 35
3 35 49 50
3 33 36 51
3 33 51 49
3 41 53 52
3 41 54 53
3 38 54 41
3 52 53 55
3 56 57 58
3 57 59 58
3 56 60 61
3 56 58 60
3 61 63 62
3 60 63 61
3 64 65 66
3 44 66 45
3 44 64 66
3 44 67 64
3 47 68 58
3 47 58 67
3 44 47 67
3 58 59 67
3 60 70 69
3 60 68 70
3 58 68 60
3 45 71 48
3 45 66 71
3 66 72 71
3 48 71 73
3 47 48 73
3 47 73 74
3 47 74 68
3 68 74 70
3 72 75 76
3 72 76 77
3 71 72 77
3 53 54 78
3 53 78 71
3 53 71 77
3 71 78 73
3 79 80 81
3 59 79 81
3 57 79 59
3 62 63 82
3 63 83 82
3 64 84 85
3 64 85 65
3 67 81 86
3 67 86 84
3 64 67 84
3 59 81 67
3 69 87 88
3 69 70 87
3 63 69 83
3 69 88 83
3 73 89 74
3 74 89 90
3 70 74 90
3 70 90 87
3 73 78 89
3 91 92 93
3 91 93 94
3 82 94 93
3 82 95 94
3 82 83 95
3 84 96 97
3 84 97 85
3 84 86 98
3 84 98 96
3 88 99 100
3 87 99 88
3 83 88 95
3 88 100 95
3 85 97 101
3 97 102 101
3 87 90 99
3 90 103 99
3 104 105 106
3 103 106 105
3 103 107 106
3 90 107 103
3 108 109 110
3 108 111 109
3 91 94 112
3 94 113 112
3 94 95 113
3 95 114 113
3 95 115 114
3 116 117 118
3 96 119 97
3 120 121 122
3 98 122 121
3 98 121 123
3 96 98 119
3 98 123 119
3 99 124 100
3 100 124 125
3 95 100 125
3 95 125 115
3 102 119 126
3 97 119 102
3 119 123 127
3 119 127 126
3 124 128 129
3 99 128 124
3 99 103 128
3 124 129 125
3 126 130 131
3 102 126 131
3 102 131 132
3 126 127 130
3 104 133 105
3 105 133 134
3 103 105 134
3 103 134 128
3 108 135 111
3 111 135 136
3 115 137 138
3 114 115 138
3 116 139 117
3 116 138 139
3 137 139 138
3 120 140 121
3 121 140 123
3 123 140 141
3 123 141 142
3 125 143 137
3 115 125 137
3 137 144 139
3 137 143 144
3 123 142 127
3 127 142 145
3 128 146 129
3 125 129 143
3 129 146 143
3 143 146 147
3 143 148 144
3 143 147 148
3 130 149 131
3 127 145 150
3 127 150 149
3 149 150 151
3 127 149 130
3 150 152 151
3 134 153 146
3 128 134 146
3 146 154 147
3 146 153 154
3 154 155 156
3 148 154 156
3 147 154 148
3 135 153 136
3 135 154 153
3 157 158 159
3 157 159 160
3 161 162 163
3 161 163 164
3 163 165 166
3 162 165 163
3 166 167 168
3 165 167 166
3 157 169 158
3 162 170 171
3 161 170 162
3 162 172 165
3 162 171 172
3 165 173 167
3 165 172 173
3 171 174 175
3 170 174 171
3 171 176 172
3 171 175 176
3 172 177 173
3 172 176 177
3 175 178 179
3 174 178 175
3 175 180 176
3 175 179 180
3 176 181 177
3 176 180 181
3 179 182 183
3 178 182 179
3 184 185 186
3 184 187 185
3 188 189 190
3 188 191 189
3 192 193 194
3 193 195 194
3 196 197 198
3 196 199 197
3 198 200 201
3 197 200 198
3 201 202 203
3 200 202 201
3 203 204 205
3 202 204 203
3 185 199 186
3 185 206 199
3 197 199 206
3 197 207 200
3 197 206 207
3 200 208 202
3 200 207 208
3 202 209 204
3 202 208 209
3 185 187 206
3 187 210 206
3 206 210 211
3 206 212 207
3 206 211 212
3 207 213 208
3 207 212 213
3 208 214 209
3 208 213 214
3 189 210 190
3 189 215 210
3 210 215 211
3 211 216 212
3 211 215 216
3 212 217 213
3 212 216 217
3 189 191 215
3 191 218 215
3 215 218 219
3 215 220 216
3 215 219 220
3 192 220 193
3 192 217 220
3 216 220 217
3 221 222 223
3 224 225 226
3 227 228 229
3 228 230 229
3 224 226 231
3 226 232 231
3 233 234 235
3 230 236 237
3 229 230 237
3 229 237 238
3 231 232 239
3 233 240 234
3 230 241 236
3 236 241 242
3 236 242 243
3 242 244 243
3 240 246 245
3 247 248 249
3 247 249 250
3 250 252 251
3 247 250 251
3 15 253 254
3 14 253 15
3 255 256 257
3 253 255 257
3 14 255 253
3 258 259 260
3 258 261 259
3 253 262 254
3 258 263 261
3 261 263 264
3 258 266 265
3 258 265 263
3 266 268 267
3 265 266 267
3 269 270 271
3 265 271 270
3 263 265 270
3 265 267 272
3 265 272 271
3 269 271 273
3 271 272 273
3 272 274 273
3 269 275 270
3 269 276 275
3 141 277 142
3 142 277 278
3 142 278 145
3 145 278 279
3 145 280 150
3 145 281 280
3 145 279 281
3 150 280 282
3 150 282 283
3 150 284 152
3 150 283 284
3 283 285 284
3 280 286 282
3 280 287 286
3 152 284 286
3 152 286 287
3 284 285 286
3 277 288 278
3 278 288 289
3 283 290 285
3 285 290 286
3 288 291 289
3 289 291 292
3 293 294 295
3 294 296 295
3 294 297 296
3 168 298 299
3 167 298 168
3 299 300 301
3 298 300 299
3 301 302 303
3 300 302 301
3 303 305 304
3 302 305 303
3 167 306 298
3 167 173 306
3 298 307 300
3 298 306 307
3 300 308 302
3 300 307 308
3 302 309 305
3 302 308 309
3 173 310 306
3 173 177 310
3 306 311 307
3 306 310 311
3 307 312 308
3 307 311 312
3 308 313 309
3 308 312 313
3 177 314 310
3 177 181 314
3 310 315 311
3 310 314 315
3 312 317 316
3 312 315 317
3 311 315 312
3 312 316 313
3 318 319 320
3 305 321 322
3 304 305 322
3 322 323 324
3 321 323 322
3 324 325 326
3 323 325 324
3 326 327 328
3 325 327 326
3 328 330 329
3 327 330 328
3 309 331 321
3 305 309 321
3 321 332 323
3 321 331 332
3 323 333 325
3 323 332 333
3 325 334 327
3 325 333 334
3 186 330 327
3 184 186 327
3 184 327 334
3 313 335 331
3 309 313 331
3 331 336 332
3 331 335 336
3 332 337 333
3 332 336 337
3 333 338 334
3 333 337 338
3 184 339 187
3 184 338 339
3 184 334 338
3 316 317 340
3 313 316 335
3 316 340 335
3 335 340 341
3 335 342 336
3 335 341 342
3 336 343 337
3 336 342 343
3 337 344 338
3 337 343 344
3 190 339 338
3 188 190 338
3 188 338 344
3 319 340 320
3 319 345 340
3 340 345 341
3 341 346 342
3 341 345 346
3 342 347 343
3 342 346 347
3 343 348 344
3 343 347 348
3 188 349 191
3 188 348 349
3 188 344 348
3 196 330 199
3 196 329 330
3 186 199 330
3 187 339 210
3 190 210 339
3 191 349 218
3 350 351 352
3 350 353 351
3 161 164 352
3 161 352 351
3 351 353 354
3 353 355 354
3 161 351 170
3 170 351 354
3 355 356 357
3 356 358 357
3 354 355 359
3 355 357 359
3 170 354 174
3 174 354 359
3 357 358 360
3 358 361 360
3 357 362 359
3 357 360 362
3 174 359 178
3 178 359 362
3 360 361 363
3 361 364 363
3 360 365 362
3 360 363 365
3 178 362 182
3 182 362 365
